<mxfile host="app.diagrams.net" modified="2023-10-04T02:26:15.974Z" agent="Mozilla/5.0 (Windows NT 10.0; Win64; x64) AppleWebKit/537.36 (KHTML, like Gecko) Chrome/114.0.0.0 Safari/537.36" etag="UOkK5oYFu-8o0gaE_cDH" version="22.0.2" type="github">
  <diagram name="Page-1" id="5QUl7R9twPn_eCK40TWg">
    <mxGraphModel dx="1760" dy="968" grid="1" gridSize="10" guides="1" tooltips="1" connect="1" arrows="1" fold="1" page="1" pageScale="1" pageWidth="850" pageHeight="1100" math="0" shadow="0">
      <root>
        <mxCell id="0" />
        <mxCell id="1" parent="0" />
        <mxCell id="DEbi96_NRQHsrtJznnQZ-1" value="START" style="ellipse;whiteSpace=wrap;html=1;" vertex="1" parent="1">
          <mxGeometry x="350" y="20" width="120" height="80" as="geometry" />
        </mxCell>
        <mxCell id="DEbi96_NRQHsrtJznnQZ-3" value="" style="endArrow=classic;html=1;rounded=0;exitX=0.5;exitY=1;exitDx=0;exitDy=0;" edge="1" parent="1" source="DEbi96_NRQHsrtJznnQZ-1">
          <mxGeometry width="50" height="50" relative="1" as="geometry">
            <mxPoint x="420" y="120" as="sourcePoint" />
            <mxPoint x="410" y="260" as="targetPoint" />
          </mxGeometry>
        </mxCell>
        <mxCell id="DEbi96_NRQHsrtJznnQZ-4" value="ANGKA" style="shape=parallelogram;perimeter=parallelogramPerimeter;whiteSpace=wrap;html=1;fixedSize=1;" vertex="1" parent="1">
          <mxGeometry x="350" y="260" width="120" height="60" as="geometry" />
        </mxCell>
        <mxCell id="DEbi96_NRQHsrtJznnQZ-5" value="" style="endArrow=classic;html=1;rounded=0;exitX=0.5;exitY=1;exitDx=0;exitDy=0;" edge="1" parent="1" source="DEbi96_NRQHsrtJznnQZ-4">
          <mxGeometry width="50" height="50" relative="1" as="geometry">
            <mxPoint x="410" y="330" as="sourcePoint" />
            <mxPoint x="410" y="390" as="targetPoint" />
          </mxGeometry>
        </mxCell>
        <mxCell id="DEbi96_NRQHsrtJznnQZ-7" value="TEBAKAN" style="shape=parallelogram;perimeter=parallelogramPerimeter;whiteSpace=wrap;html=1;fixedSize=1;" vertex="1" parent="1">
          <mxGeometry x="350" y="390" width="120" height="60" as="geometry" />
        </mxCell>
        <mxCell id="DEbi96_NRQHsrtJznnQZ-8" value="ANGKA=&lt;br&gt;TEBAKAN" style="rhombus;whiteSpace=wrap;html=1;" vertex="1" parent="1">
          <mxGeometry x="360" y="640" width="100" height="110" as="geometry" />
        </mxCell>
        <mxCell id="DEbi96_NRQHsrtJznnQZ-9" value="BENAR" style="shape=parallelogram;perimeter=parallelogramPerimeter;whiteSpace=wrap;html=1;fixedSize=1;" vertex="1" parent="1">
          <mxGeometry x="150" y="670" width="120" height="60" as="geometry" />
        </mxCell>
        <mxCell id="DEbi96_NRQHsrtJznnQZ-11" value="ANGKA SAYA&lt;br&gt;LEBIH KECIL" style="shape=parallelogram;perimeter=parallelogramPerimeter;whiteSpace=wrap;html=1;fixedSize=1;" vertex="1" parent="1">
          <mxGeometry x="570" y="820" width="120" height="60" as="geometry" />
        </mxCell>
        <mxCell id="DEbi96_NRQHsrtJznnQZ-12" value="ANGKA&amp;gt;TEBAKAN" style="rhombus;whiteSpace=wrap;html=1;" vertex="1" parent="1">
          <mxGeometry x="340" y="940" width="140" height="80" as="geometry" />
        </mxCell>
        <mxCell id="DEbi96_NRQHsrtJznnQZ-13" value="ANGKA&amp;lt;TEBAKAN" style="rhombus;whiteSpace=wrap;html=1;" vertex="1" parent="1">
          <mxGeometry x="340" y="810" width="140" height="80" as="geometry" />
        </mxCell>
        <mxCell id="DEbi96_NRQHsrtJznnQZ-14" value="ANGKA SAYA&lt;br&gt;LEBIH BESAR" style="shape=parallelogram;perimeter=parallelogramPerimeter;whiteSpace=wrap;html=1;fixedSize=1;" vertex="1" parent="1">
          <mxGeometry x="570" y="950" width="120" height="60" as="geometry" />
        </mxCell>
        <mxCell id="DEbi96_NRQHsrtJznnQZ-15" value="" style="endArrow=classic;html=1;rounded=0;exitX=0;exitY=0.5;exitDx=0;exitDy=0;entryX=0.983;entryY=0.417;entryDx=0;entryDy=0;entryPerimeter=0;" edge="1" parent="1" source="DEbi96_NRQHsrtJznnQZ-8" target="DEbi96_NRQHsrtJznnQZ-9">
          <mxGeometry width="50" height="50" relative="1" as="geometry">
            <mxPoint x="360" y="544" as="sourcePoint" />
            <mxPoint x="261" y="546" as="targetPoint" />
          </mxGeometry>
        </mxCell>
        <mxCell id="DEbi96_NRQHsrtJznnQZ-26" value="YES" style="edgeLabel;html=1;align=center;verticalAlign=middle;resizable=0;points=[];" vertex="1" connectable="0" parent="DEbi96_NRQHsrtJznnQZ-15">
          <mxGeometry x="-0.0656" y="-1" relative="1" as="geometry">
            <mxPoint as="offset" />
          </mxGeometry>
        </mxCell>
        <mxCell id="DEbi96_NRQHsrtJznnQZ-16" value="" style="endArrow=classic;html=1;rounded=0;" edge="1" parent="1" target="DEbi96_NRQHsrtJznnQZ-17">
          <mxGeometry width="50" height="50" relative="1" as="geometry">
            <mxPoint x="125" y="700" as="sourcePoint" />
            <mxPoint x="210" y="640" as="targetPoint" />
          </mxGeometry>
        </mxCell>
        <mxCell id="DEbi96_NRQHsrtJznnQZ-17" value="END" style="ellipse;whiteSpace=wrap;html=1;" vertex="1" parent="1">
          <mxGeometry x="80" y="860" width="90" height="80" as="geometry" />
        </mxCell>
        <mxCell id="DEbi96_NRQHsrtJznnQZ-18" value="" style="endArrow=classic;html=1;rounded=0;entryX=0.5;entryY=0;entryDx=0;entryDy=0;" edge="1" parent="1" source="DEbi96_NRQHsrtJznnQZ-8" target="DEbi96_NRQHsrtJznnQZ-13">
          <mxGeometry width="50" height="50" relative="1" as="geometry">
            <mxPoint x="420" y="600" as="sourcePoint" />
            <mxPoint x="410" y="800" as="targetPoint" />
          </mxGeometry>
        </mxCell>
        <mxCell id="DEbi96_NRQHsrtJznnQZ-27" value="NO" style="edgeLabel;html=1;align=center;verticalAlign=middle;resizable=0;points=[];" vertex="1" connectable="0" parent="DEbi96_NRQHsrtJznnQZ-18">
          <mxGeometry x="-0.1" y="1" relative="1" as="geometry">
            <mxPoint as="offset" />
          </mxGeometry>
        </mxCell>
        <mxCell id="DEbi96_NRQHsrtJznnQZ-21" value="PROSES&lt;br&gt;PENEBAKAN&lt;br&gt;ANGKA" style="rounded=0;whiteSpace=wrap;html=1;" vertex="1" parent="1">
          <mxGeometry x="350" y="500" width="120" height="60" as="geometry" />
        </mxCell>
        <mxCell id="DEbi96_NRQHsrtJznnQZ-23" value="" style="endArrow=classic;html=1;rounded=0;exitX=0.5;exitY=1;exitDx=0;exitDy=0;" edge="1" parent="1" source="DEbi96_NRQHsrtJznnQZ-7">
          <mxGeometry width="50" height="50" relative="1" as="geometry">
            <mxPoint x="510" y="660" as="sourcePoint" />
            <mxPoint x="410" y="500" as="targetPoint" />
          </mxGeometry>
        </mxCell>
        <mxCell id="DEbi96_NRQHsrtJznnQZ-24" value="" style="endArrow=classic;html=1;rounded=0;exitX=0.5;exitY=1;exitDx=0;exitDy=0;entryX=0.5;entryY=0;entryDx=0;entryDy=0;" edge="1" parent="1" source="DEbi96_NRQHsrtJznnQZ-21" target="DEbi96_NRQHsrtJznnQZ-8">
          <mxGeometry width="50" height="50" relative="1" as="geometry">
            <mxPoint x="510" y="660" as="sourcePoint" />
            <mxPoint x="560" y="610" as="targetPoint" />
          </mxGeometry>
        </mxCell>
        <mxCell id="DEbi96_NRQHsrtJznnQZ-28" value="" style="endArrow=classic;html=1;rounded=0;exitX=0.5;exitY=1;exitDx=0;exitDy=0;entryX=0.5;entryY=0;entryDx=0;entryDy=0;" edge="1" parent="1" source="DEbi96_NRQHsrtJznnQZ-13" target="DEbi96_NRQHsrtJznnQZ-12">
          <mxGeometry width="50" height="50" relative="1" as="geometry">
            <mxPoint x="510" y="870" as="sourcePoint" />
            <mxPoint x="560" y="820" as="targetPoint" />
          </mxGeometry>
        </mxCell>
        <mxCell id="DEbi96_NRQHsrtJznnQZ-29" value="NO" style="edgeLabel;html=1;align=center;verticalAlign=middle;resizable=0;points=[];" vertex="1" connectable="0" parent="DEbi96_NRQHsrtJznnQZ-28">
          <mxGeometry y="2" relative="1" as="geometry">
            <mxPoint as="offset" />
          </mxGeometry>
        </mxCell>
        <mxCell id="DEbi96_NRQHsrtJznnQZ-30" value="" style="endArrow=classic;html=1;rounded=0;exitX=1;exitY=0.5;exitDx=0;exitDy=0;" edge="1" parent="1" source="DEbi96_NRQHsrtJznnQZ-13" target="DEbi96_NRQHsrtJznnQZ-11">
          <mxGeometry width="50" height="50" relative="1" as="geometry">
            <mxPoint x="510" y="870" as="sourcePoint" />
            <mxPoint x="560" y="820" as="targetPoint" />
          </mxGeometry>
        </mxCell>
        <mxCell id="DEbi96_NRQHsrtJznnQZ-31" value="YES" style="edgeLabel;html=1;align=center;verticalAlign=middle;resizable=0;points=[];" vertex="1" connectable="0" parent="DEbi96_NRQHsrtJznnQZ-30">
          <mxGeometry relative="1" as="geometry">
            <mxPoint as="offset" />
          </mxGeometry>
        </mxCell>
        <mxCell id="DEbi96_NRQHsrtJznnQZ-32" value="" style="endArrow=classic;html=1;rounded=0;exitX=1;exitY=0.5;exitDx=0;exitDy=0;" edge="1" parent="1" source="DEbi96_NRQHsrtJznnQZ-12" target="DEbi96_NRQHsrtJznnQZ-14">
          <mxGeometry width="50" height="50" relative="1" as="geometry">
            <mxPoint x="510" y="870" as="sourcePoint" />
            <mxPoint x="560" y="820" as="targetPoint" />
          </mxGeometry>
        </mxCell>
        <mxCell id="DEbi96_NRQHsrtJznnQZ-33" value="YES" style="edgeLabel;html=1;align=center;verticalAlign=middle;resizable=0;points=[];" vertex="1" connectable="0" parent="DEbi96_NRQHsrtJznnQZ-32">
          <mxGeometry x="-0.08" y="3" relative="1" as="geometry">
            <mxPoint as="offset" />
          </mxGeometry>
        </mxCell>
        <mxCell id="DEbi96_NRQHsrtJznnQZ-34" value="" style="endArrow=classic;html=1;rounded=0;entryX=1;entryY=0.25;entryDx=0;entryDy=0;" edge="1" parent="1" target="DEbi96_NRQHsrtJznnQZ-21">
          <mxGeometry width="50" height="50" relative="1" as="geometry">
            <mxPoint x="790" y="515" as="sourcePoint" />
            <mxPoint x="490" y="510" as="targetPoint" />
          </mxGeometry>
        </mxCell>
        <mxCell id="DEbi96_NRQHsrtJznnQZ-35" value="" style="endArrow=none;html=1;rounded=0;" edge="1" parent="1">
          <mxGeometry width="50" height="50" relative="1" as="geometry">
            <mxPoint x="790" y="979" as="sourcePoint" />
            <mxPoint x="790" y="519" as="targetPoint" />
          </mxGeometry>
        </mxCell>
        <mxCell id="DEbi96_NRQHsrtJznnQZ-36" value="" style="endArrow=none;html=1;rounded=0;" edge="1" parent="1" source="DEbi96_NRQHsrtJznnQZ-14">
          <mxGeometry width="50" height="50" relative="1" as="geometry">
            <mxPoint x="510" y="850" as="sourcePoint" />
            <mxPoint x="790" y="980" as="targetPoint" />
          </mxGeometry>
        </mxCell>
        <mxCell id="DEbi96_NRQHsrtJznnQZ-37" value="" style="endArrow=none;html=1;rounded=0;entryX=0;entryY=0.5;entryDx=0;entryDy=0;" edge="1" parent="1" target="DEbi96_NRQHsrtJznnQZ-12">
          <mxGeometry width="50" height="50" relative="1" as="geometry">
            <mxPoint x="200" y="980" as="sourcePoint" />
            <mxPoint x="560" y="1010" as="targetPoint" />
          </mxGeometry>
        </mxCell>
        <mxCell id="DEbi96_NRQHsrtJznnQZ-40" value="" style="endArrow=classic;html=1;rounded=0;entryX=0;entryY=0.5;entryDx=0;entryDy=0;" edge="1" parent="1">
          <mxGeometry width="50" height="50" relative="1" as="geometry">
            <mxPoint x="125" y="700" as="sourcePoint" />
            <mxPoint x="165" y="700" as="targetPoint" />
          </mxGeometry>
        </mxCell>
        <mxCell id="DEbi96_NRQHsrtJznnQZ-41" value="" style="endArrow=classic;html=1;rounded=0;entryX=0.417;entryY=1.033;entryDx=0;entryDy=0;entryPerimeter=0;" edge="1" parent="1" target="DEbi96_NRQHsrtJznnQZ-9">
          <mxGeometry width="50" height="50" relative="1" as="geometry">
            <mxPoint x="200" y="980" as="sourcePoint" />
            <mxPoint x="560" y="740" as="targetPoint" />
          </mxGeometry>
        </mxCell>
        <mxCell id="DEbi96_NRQHsrtJznnQZ-42" value="" style="endArrow=classic;html=1;rounded=0;entryX=1;entryY=0.5;entryDx=0;entryDy=0;" edge="1" parent="1" target="DEbi96_NRQHsrtJznnQZ-21">
          <mxGeometry width="50" height="50" relative="1" as="geometry">
            <mxPoint x="480" y="530" as="sourcePoint" />
            <mxPoint x="560" y="740" as="targetPoint" />
          </mxGeometry>
        </mxCell>
        <mxCell id="DEbi96_NRQHsrtJznnQZ-43" value="" style="endArrow=none;html=1;rounded=0;" edge="1" parent="1">
          <mxGeometry width="50" height="50" relative="1" as="geometry">
            <mxPoint x="480" y="760" as="sourcePoint" />
            <mxPoint x="480" y="530" as="targetPoint" />
          </mxGeometry>
        </mxCell>
        <mxCell id="DEbi96_NRQHsrtJznnQZ-44" value="" style="endArrow=none;html=1;rounded=0;" edge="1" parent="1">
          <mxGeometry width="50" height="50" relative="1" as="geometry">
            <mxPoint x="630" y="760" as="sourcePoint" />
            <mxPoint x="480" y="760" as="targetPoint" />
          </mxGeometry>
        </mxCell>
        <mxCell id="DEbi96_NRQHsrtJznnQZ-45" value="" style="endArrow=classic;html=1;rounded=0;entryX=0.5;entryY=0;entryDx=0;entryDy=0;" edge="1" parent="1" target="DEbi96_NRQHsrtJznnQZ-11">
          <mxGeometry width="50" height="50" relative="1" as="geometry">
            <mxPoint x="630" y="760" as="sourcePoint" />
            <mxPoint x="560" y="710" as="targetPoint" />
          </mxGeometry>
        </mxCell>
      </root>
    </mxGraphModel>
  </diagram>
</mxfile>
